<svg style="width:100%;height:100%" xmlns="http://www.w3.org/2000/svg" width="800" height="500"><g data-render-type="RenderParagraph" pointer-events="none"><text data-render-name="text" style="transform: matrix3d(1, 0, 0, 0, 0, 1, 0, 0, 0, 0, 1, 0, 20, 20, 0, 1);"><tspan x="0" y="3.599999999999998" text-anchor="start" dominant-baseline="hanging" fill="#333333" font-size="18" font-family="Arial" font-weight="bold">Skill</tspan><tspan x="38" y="3.599999999999998" text-anchor="start" dominant-baseline="hanging" fill="#333333" font-size="18" font-family="Arial" font-weight="bold"> </tspan><tspan x="44" y="3.599999999999998" text-anchor="start" dominant-baseline="hanging" fill="#333333" font-size="18" font-family="Arial" font-weight="bold">Assessment</tspan></text></g><g data-render-type="RenderCustomPaint" pointer-events="none"><path data-render-name="axisLines" d="M38.12001777648926 0L71.13292156364335 19.06000888824463L71.13292156364335 57.18002666473389L38.12001777648926 76.24003555297853L5.107113989335176 57.18002666473391L5.107113989335154 19.060008888244656L38.12001777648926 0" fill="none" stroke="rgba(0, 0, 0, 0.1)" stroke-width="1" style="transform: matrix3d(1, 0, 0, 0, 0, 1, 0, 0, 0, 0, 1, 0, 298.38, 230.68, 0, 1);"></path></g><g data-render-type="RenderCustomPaint" pointer-events="none"><path data-render-name="axisLines" d="M76.24003555297853 0L142.2658431272867 38.12001777648926L142.2658431272867 114.36005332946777L76.24003555297853 152.48007110595705L10.214227978670351 114.36005332946782L10.214227978670309 38.12001777648931L76.24003555297853 0" fill="none" stroke="rgba(0, 0, 0, 0.1)" stroke-width="1" style="transform: matrix3d(1, 0, 0, 0, 0, 1, 0, 0, 0, 0, 1, 0, 260.26, 192.56, 0, 1);"></path></g><g data-render-type="RenderCustomPaint" pointer-events="none"><path data-render-name="axisLines" d="M114.36005332946777 0L213.39876469093002 57.18002666473389L213.39876469093005 171.54007999420165L114.36005332946777 228.72010665893555L15.321341968005527 171.5400799942017L15.32134196800547 57.18002666473396L114.36005332946777 0" fill="none" stroke="rgba(0, 0, 0, 0.1)" stroke-width="1" style="transform: matrix3d(1, 0, 0, 0, 0, 1, 0, 0, 0, 0, 1, 0, 222.14, 154.44, 0, 1);"></path></g><g data-render-type="RenderCustomPaint" pointer-events="none"><path data-render-name="axisLines" d="M152.48007110595705 0L284.5316862545734 76.24003555297853L284.5316862545734 228.72010665893555L152.48007110595705 304.9601422119141L20.428455957340702 228.72010665893563L20.428455957340617 76.24003555297863L152.48007110595705 0" fill="none" stroke="rgba(0, 0, 0, 0.1)" stroke-width="1" style="transform: matrix3d(1, 0, 0, 0, 0, 1, 0, 0, 0, 0, 1, 0, 184.02, 116.32, 0, 1);"></path></g><g data-render-type="RenderCustomPaint" pointer-events="none"><path data-render-name="axisLines" d="M190.6000888824463 0L355.6646078182167 95.30004444122315L355.6646078182167 285.9001333236694L190.6000888824463 381.2001777648926L25.535569946675878 285.9001333236695L25.535569946675764 95.30004444122326L190.6000888824463 0" fill="none" stroke="rgba(0, 0, 0, 0.1)" stroke-width="1" style="transform: matrix3d(1, 0, 0, 0, 0, 1, 0, 0, 0, 0, 1, 0, 145.9, 78.1999, 0, 1);"></path></g><g data-render-type="RenderCustomPaint" pointer-events="none"><path data-render-name="gridLines" d="M190.6000888824463 190.6000888824463L190.6000888824463 0" fill="none" stroke="rgba(0, 0, 0, 0.1)" stroke-width="1" style="transform: matrix3d(1, 0, 0, 0, 0, 1, 0, 0, 0, 0, 1, 0, 145.9, 78.1999, 0, 1);"></path></g><g data-render-type="RenderCustomPaint" pointer-events="none"><path data-render-name="gridLines" d="M190.6000888824463 190.6000888824463L190.6000888824463 0" fill="none" stroke="rgba(0, 0, 0, 0.1)" stroke-width="1" style="transform: matrix3d(0.5, 0.866025, 0, 0, -0.866025, 0.5, 0, 0, 0, 0, 1, 0, 406.264, 8.43544, 0, 1);"></path></g><g data-render-type="RenderCustomPaint" pointer-events="none"><path data-render-name="gridLines" d="M190.6000888824463 190.6000888824463L190.6000888824463 0" fill="none" stroke="rgba(0, 0, 0, 0.1)" stroke-width="1" style="transform: matrix3d(-0.5, 0.866025, 0, 0, -0.866025, -0.5, 0, 0, 0, 0, 1, 0, 596.865, 199.036, 0, 1);"></path></g><g data-render-type="RenderCustomPaint" pointer-events="none"><path data-render-name="gridLines" d="M190.6000888824463 190.6000888824463L190.6000888824463 0" fill="none" stroke="rgba(0, 0, 0, 0.1)" stroke-width="1" style="transform: matrix3d(-1, 0, 0, 0, 0, -1, 0, 0, 0, 0, 1, 0, 527.1, 459.4, 0, 1);"></path></g><g data-render-type="RenderCustomPaint" pointer-events="none"><path data-render-name="gridLines" d="M190.6000888824463 190.6000888824463L190.6000888824463 0" fill="none" stroke="rgba(0, 0, 0, 0.1)" stroke-width="1" style="transform: matrix3d(-0.5, -0.866025, 0, 0, 0.866025, -0.5, 0, 0, 0, 0, 1, 0, 266.736, 529.165, 0, 1);"></path></g><g data-render-type="RenderCustomPaint" pointer-events="none"><path data-render-name="gridLines" d="M190.6000888824463 190.6000888824463L190.6000888824463 0" fill="none" stroke="rgba(0, 0, 0, 0.1)" stroke-width="1" style="transform: matrix3d(0.5, -0.866025, 0, 0, 0.866025, 0.5, 0, 0, 0, 0, 1, 0, 76.1354, 338.564, 0, 1);"></path></g><g data-render-type="RenderCustomPaint" pointer-events="none"><path data-render-name="fill" d="M190.6000888824463 28.59001333236695L339.1581559246397 104.83004888534548L306.1452521374856 257.3101199913025L190.6000888824463 343.08015998840335L66.80169968061848 262.0751222133637L33.78879589346431 100.06504666328442L190.6000888824463 28.59001333236695Z" fill="#00a9ff" fill-opacity="0.3" stroke="none" style="transform: matrix3d(1, 0, 0, 0, 0, 1, 0, 0, 0, 0, 1, 0, 145.9, 78.1999, 0, 1);"></path><path data-render-name="stroke" d="M190.6000888824463 28.59001333236695L339.1581559246397 104.83004888534548L306.1452521374856 257.3101199913025L190.6000888824463 343.08015998840335L66.80169968061848 262.0751222133637L33.78879589346431 100.06504666328442L190.6000888824463 28.59001333236695Z" fill="none" stroke="#00a9ff" stroke-width="2" stroke-opacity="1" style="transform: matrix3d(1, 0, 0, 0, 0, 1, 0, 0, 0, 0, 1, 0, 145.9, 78.1999, 0, 1);"></path><circle data-render-name="point" r="0" style="transform: matrix3d(1, 0, 0, 0, 0, 1, 0, 0, 0, 0, 1, 0, 145.9, 78.1999, 0, 1);"></circle></g><g data-render-type="RenderCustomPaint" pointer-events="none"><path data-render-name="fill" d="M190.6000888824463 41.93201955413818L330.90492997785117 109.59505110740662L325.95299440977806 268.74612532424925L190.6000888824463 358.328167098999L71.7536352486916 259.21612088012705L58.54847373382987 114.36005332946789L190.6000888824463 41.93201955413818Z" fill="#ffb840" fill-opacity="0.3" stroke="none" style="transform: matrix3d(1, 0, 0, 0, 0, 1, 0, 0, 0, 0, 1, 0, 145.9, 78.1999, 0, 1);"></path><path data-render-name="stroke" d="M190.6000888824463 41.93201955413818L330.90492997785117 109.59505110740662L325.95299440977806 268.74612532424925L190.6000888824463 358.328167098999L71.7536352486916 259.21612088012705L58.54847373382987 114.36005332946789L190.6000888824463 41.93201955413818Z" fill="none" stroke="#ffb840" stroke-width="2" stroke-opacity="1" style="transform: matrix3d(1, 0, 0, 0, 0, 1, 0, 0, 0, 0, 1, 0, 145.9, 78.1999, 0, 1);"></path><circle data-render-name="point" r="0" style="transform: matrix3d(1, 0, 0, 0, 0, 1, 0, 0, 0, 0, 1, 0, 145.9, 78.1999, 0, 1);"></circle></g><g data-render-type="RenderDecoratedBox" pointer-events="none"><path data-render-name="box" stroke-width="0" fill="rgba(243, 244, 246, 1)" d="M0 4A4 4 0 0 1 4 0L16 0A4 4 0 0 1 20 4L20 12A4 4 0 0 1 16 16L4 16A4 4 0 0 1 0 12Z" style="transform: matrix3d(1, 0, 0, 0, 0, 1, 0, 0, 0, 0, 1, 0, 326.5, 222.68, 0, 1);"></path><path data-render-name="topBorder" stroke-width="0" fill="rgba(0, 0, 0, 0.08)" d="M0 4A4 4 0 0 1 4 0L16 0A4 4 0 0 1 20 4L20 12A4 4 0 0 1 16 16L4 16A4 4 0 0 1 0 12ZM1 12A3 3 0 0 0 4 15L16 15A3 3 0 0 0 19 12L19 4A3 3 0 0 0 16 1L4 1A3 3 0 0 0 1 4Z" style="transform: matrix3d(1, 0, 0, 0, 0, 1, 0, 0, 0, 0, 1, 0, 326.5, 222.68, 0, 1);"></path><path data-render-name="leftBorder" style="transform: matrix3d(1, 0, 0, 0, 0, 1, 0, 0, 0, 0, 1, 0, 326.5, 222.68, 0, 1);"></path><path data-render-name="rightBorder" style="transform: matrix3d(1, 0, 0, 0, 0, 1, 0, 0, 0, 0, 1, 0, 326.5, 222.68, 0, 1);"></path><path data-render-name="bottomBorder" stroke-width="0" stroke="transparent" fill="none" style="transform: matrix3d(1, 0, 0, 0, 0, 1, 0, 0, 0, 0, 1, 0, 326.5, 222.68, 0, 1);"></path></g><g data-render-type="RenderParagraph" pointer-events="none"><text data-render-name="text" style="transform: matrix3d(1, 0, 0, 0, 0, 1, 0, 0, 0, 0, 1, 0, 330.5, 224.68, 0, 1);"><tspan x="0" y="2" text-anchor="start" dominant-baseline="hanging" fill="#333333" font-size="10" font-family="Arial" font-weight="normal">20</tspan></text></g><g data-render-type="RenderDecoratedBox" pointer-events="none"><path data-render-name="box" stroke-width="0" fill="rgba(243, 244, 246, 1)" d="M0 4A4 4 0 0 1 4 0L16 0A4 4 0 0 1 20 4L20 12A4 4 0 0 1 16 16L4 16A4 4 0 0 1 0 12Z" style="transform: matrix3d(1, 0, 0, 0, 0, 1, 0, 0, 0, 0, 1, 0, 326.5, 184.56, 0, 1);"></path><path data-render-name="topBorder" stroke-width="0" fill="rgba(0, 0, 0, 0.08)" d="M0 4A4 4 0 0 1 4 0L16 0A4 4 0 0 1 20 4L20 12A4 4 0 0 1 16 16L4 16A4 4 0 0 1 0 12ZM1 12A3 3 0 0 0 4 15L16 15A3 3 0 0 0 19 12L19 4A3 3 0 0 0 16 1L4 1A3 3 0 0 0 1 4Z" style="transform: matrix3d(1, 0, 0, 0, 0, 1, 0, 0, 0, 0, 1, 0, 326.5, 184.56, 0, 1);"></path><path data-render-name="leftBorder" style="transform: matrix3d(1, 0, 0, 0, 0, 1, 0, 0, 0, 0, 1, 0, 326.5, 184.56, 0, 1);"></path><path data-render-name="rightBorder" style="transform: matrix3d(1, 0, 0, 0, 0, 1, 0, 0, 0, 0, 1, 0, 326.5, 184.56, 0, 1);"></path><path data-render-name="bottomBorder" stroke-width="0" stroke="transparent" fill="none" style="transform: matrix3d(1, 0, 0, 0, 0, 1, 0, 0, 0, 0, 1, 0, 326.5, 184.56, 0, 1);"></path></g><g data-render-type="RenderParagraph" pointer-events="none"><text data-render-name="text" style="transform: matrix3d(1, 0, 0, 0, 0, 1, 0, 0, 0, 0, 1, 0, 330.5, 186.56, 0, 1);"><tspan x="0" y="2" text-anchor="start" dominant-baseline="hanging" fill="#333333" font-size="10" font-family="Arial" font-weight="normal">40</tspan></text></g><g data-render-type="RenderDecoratedBox" pointer-events="none"><path data-render-name="box" stroke-width="0" fill="rgba(243, 244, 246, 1)" d="M0 4A4 4 0 0 1 4 0L16 0A4 4 0 0 1 20 4L20 12A4 4 0 0 1 16 16L4 16A4 4 0 0 1 0 12Z" style="transform: matrix3d(1, 0, 0, 0, 0, 1, 0, 0, 0, 0, 1, 0, 326.5, 146.44, 0, 1);"></path><path data-render-name="topBorder" stroke-width="0" fill="rgba(0, 0, 0, 0.08)" d="M0 4A4 4 0 0 1 4 0L16 0A4 4 0 0 1 20 4L20 12A4 4 0 0 1 16 16L4 16A4 4 0 0 1 0 12ZM1 12A3 3 0 0 0 4 15L16 15A3 3 0 0 0 19 12L19 4A3 3 0 0 0 16 1L4 1A3 3 0 0 0 1 4Z" style="transform: matrix3d(1, 0, 0, 0, 0, 1, 0, 0, 0, 0, 1, 0, 326.5, 146.44, 0, 1);"></path><path data-render-name="leftBorder" style="transform: matrix3d(1, 0, 0, 0, 0, 1, 0, 0, 0, 0, 1, 0, 326.5, 146.44, 0, 1);"></path><path data-render-name="rightBorder" style="transform: matrix3d(1, 0, 0, 0, 0, 1, 0, 0, 0, 0, 1, 0, 326.5, 146.44, 0, 1);"></path><path data-render-name="bottomBorder" stroke-width="0" stroke="transparent" fill="none" style="transform: matrix3d(1, 0, 0, 0, 0, 1, 0, 0, 0, 0, 1, 0, 326.5, 146.44, 0, 1);"></path></g><g data-render-type="RenderParagraph" pointer-events="none"><text data-render-name="text" style="transform: matrix3d(1, 0, 0, 0, 0, 1, 0, 0, 0, 0, 1, 0, 330.5, 148.44, 0, 1);"><tspan x="0" y="2" text-anchor="start" dominant-baseline="hanging" fill="#333333" font-size="10" font-family="Arial" font-weight="normal">60</tspan></text></g><g data-render-type="RenderDecoratedBox" pointer-events="none"><path data-render-name="box" stroke-width="0" fill="rgba(243, 244, 246, 1)" d="M0 4A4 4 0 0 1 4 0L16 0A4 4 0 0 1 20 4L20 12A4 4 0 0 1 16 16L4 16A4 4 0 0 1 0 12Z" style="transform: matrix3d(1, 0, 0, 0, 0, 1, 0, 0, 0, 0, 1, 0, 326.5, 108.32, 0, 1);"></path><path data-render-name="topBorder" stroke-width="0" fill="rgba(0, 0, 0, 0.08)" d="M0 4A4 4 0 0 1 4 0L16 0A4 4 0 0 1 20 4L20 12A4 4 0 0 1 16 16L4 16A4 4 0 0 1 0 12ZM1 12A3 3 0 0 0 4 15L16 15A3 3 0 0 0 19 12L19 4A3 3 0 0 0 16 1L4 1A3 3 0 0 0 1 4Z" style="transform: matrix3d(1, 0, 0, 0, 0, 1, 0, 0, 0, 0, 1, 0, 326.5, 108.32, 0, 1);"></path><path data-render-name="leftBorder" style="transform: matrix3d(1, 0, 0, 0, 0, 1, 0, 0, 0, 0, 1, 0, 326.5, 108.32, 0, 1);"></path><path data-render-name="rightBorder" style="transform: matrix3d(1, 0, 0, 0, 0, 1, 0, 0, 0, 0, 1, 0, 326.5, 108.32, 0, 1);"></path><path data-render-name="bottomBorder" stroke-width="0" stroke="transparent" fill="none" style="transform: matrix3d(1, 0, 0, 0, 0, 1, 0, 0, 0, 0, 1, 0, 326.5, 108.32, 0, 1);"></path></g><g data-render-type="RenderParagraph" pointer-events="none"><text data-render-name="text" style="transform: matrix3d(1, 0, 0, 0, 0, 1, 0, 0, 0, 0, 1, 0, 330.5, 110.32, 0, 1);"><tspan x="0" y="2" text-anchor="start" dominant-baseline="hanging" fill="#333333" font-size="10" font-family="Arial" font-weight="normal">80</tspan></text></g><g data-render-type="RenderParagraph" pointer-events="none"><text data-render-name="text" style="transform: matrix3d(1, 0, 0, 0, 0, 1, 0, 0, 0, 0, 1, 0, 291, 57.5999, 0, 1);"><tspan x="0" y="2.5999999999999996" text-anchor="start" dominant-baseline="hanging" fill="#333333" font-size="13" font-family="Arial" font-weight="normal">Communication</tspan></text></g><g data-render-type="RenderParagraph" pointer-events="none"><text data-render-name="text" style="transform: matrix3d(1, 0, 0, 0, 0, 1, 0, 0, 0, 0, 1, 0, 505.895, 155.4, 0, 1);"><tspan x="0" y="2.5999999999999996" text-anchor="start" dominant-baseline="hanging" fill="#333333" font-size="13" font-family="Arial" font-weight="normal">Problem</tspan><tspan x="49" y="2.5999999999999996" text-anchor="start" dominant-baseline="hanging" fill="#333333" font-size="13" font-family="Arial" font-weight="normal"> </tspan><tspan x="53" y="2.5999999999999996" text-anchor="start" dominant-baseline="hanging" fill="#333333" font-size="13" font-family="Arial" font-weight="normal">Solving</tspan></text></g><g data-render-type="RenderParagraph" pointer-events="none"><text data-render-name="text" style="transform: matrix3d(1, 0, 0, 0, 0, 1, 0, 0, 0, 0, 1, 0, 505.895, 366.6, 0, 1);"><tspan x="0" y="2.5999999999999996" text-anchor="start" dominant-baseline="hanging" fill="#333333" font-size="13" font-family="Arial" font-weight="normal">Leadership</tspan></text></g><g data-render-type="RenderParagraph" pointer-events="none"><text data-render-name="text" style="transform: matrix3d(1, 0, 0, 0, 0, 1, 0, 0, 0, 0, 1, 0, 306.5, 464.4, 0, 1);"><tspan x="0" y="2.5999999999999996" text-anchor="start" dominant-baseline="hanging" fill="#333333" font-size="13" font-family="Arial" font-weight="normal">Teamwork</tspan></text></g><g data-render-type="RenderParagraph" pointer-events="none"><text data-render-name="text" style="transform: matrix3d(1, 0, 0, 0, 0, 1, 0, 0, 0, 0, 1, 0, 112.105, 366.6, 0, 1);"><tspan x="0" y="2.5999999999999996" text-anchor="start" dominant-baseline="hanging" fill="#333333" font-size="13" font-family="Arial" font-weight="normal">Creativity</tspan></text></g><g data-render-type="RenderParagraph" pointer-events="none"><text data-render-name="text" style="transform: matrix3d(1, 0, 0, 0, 0, 1, 0, 0, 0, 0, 1, 0, 112.105, 155.4, 0, 1);"><tspan x="0" y="2.5999999999999996" text-anchor="start" dominant-baseline="hanging" fill="#333333" font-size="13" font-family="Arial" font-weight="normal">Technical</tspan></text></g><g data-render-type="RenderDecoratedBox" pointer-events="none"><path data-render-name="box" stroke-width="0" fill="rgba(0, 169, 255, 1)" d="M0 5A5 5 0 0 1 10 5A5 5 0 0 1 0 5Z" style="transform: matrix3d(1, 0, 0, 0, 0, 1, 0, 0, 0, 0, 1, 0, 673, 59.2, 0, 1);"></path><path data-render-name="topBorder" d="" style="transform: matrix3d(1, 0, 0, 0, 0, 1, 0, 0, 0, 0, 1, 0, 673, 59.2, 0, 1);"></path><path data-render-name="leftBorder" d="" style="transform: matrix3d(1, 0, 0, 0, 0, 1, 0, 0, 0, 0, 1, 0, 673, 59.2, 0, 1);"></path><path data-render-name="rightBorder" d="" style="transform: matrix3d(1, 0, 0, 0, 0, 1, 0, 0, 0, 0, 1, 0, 673, 59.2, 0, 1);"></path><path data-render-name="bottomBorder" d="" style="transform: matrix3d(1, 0, 0, 0, 0, 1, 0, 0, 0, 0, 1, 0, 673, 59.2, 0, 1);"></path></g><g data-render-type="RenderParagraph" pointer-events="none"><text data-render-name="text" style="transform: matrix3d(1, 0, 0, 0, 0, 1, 0, 0, 0, 0, 1, 0, 689, 57.6, 0, 1);"><tspan x="0" y="2.1999999999999993" text-anchor="start" dominant-baseline="hanging" fill="#333333" font-size="11" font-family="Arial" font-weight="normal">Self</tspan><tspan x="19" y="2.1999999999999993" text-anchor="start" dominant-baseline="hanging" fill="#333333" font-size="11" font-family="Arial" font-weight="normal"> </tspan><tspan x="23" y="2.1999999999999993" text-anchor="start" dominant-baseline="hanging" fill="#333333" font-size="11" font-family="Arial" font-weight="normal">Assessment</tspan></text></g><g data-render-type="RenderDecoratedBox" pointer-events="none"><path data-render-name="box" stroke-width="0" fill="rgba(255, 184, 64, 1)" d="M0 5A5 5 0 0 1 10 5A5 5 0 0 1 0 5Z" style="transform: matrix3d(1, 0, 0, 0, 0, 1, 0, 0, 0, 0, 1, 0, 673, 84.4, 0, 1);"></path><path data-render-name="topBorder" d="" style="transform: matrix3d(1, 0, 0, 0, 0, 1, 0, 0, 0, 0, 1, 0, 673, 84.4, 0, 1);"></path><path data-render-name="leftBorder" d="" style="transform: matrix3d(1, 0, 0, 0, 0, 1, 0, 0, 0, 0, 1, 0, 673, 84.4, 0, 1);"></path><path data-render-name="rightBorder" d="" style="transform: matrix3d(1, 0, 0, 0, 0, 1, 0, 0, 0, 0, 1, 0, 673, 84.4, 0, 1);"></path><path data-render-name="bottomBorder" d="" style="transform: matrix3d(1, 0, 0, 0, 0, 1, 0, 0, 0, 0, 1, 0, 673, 84.4, 0, 1);"></path></g><g data-render-type="RenderParagraph" pointer-events="none"><text data-render-name="text" style="transform: matrix3d(1, 0, 0, 0, 0, 1, 0, 0, 0, 0, 1, 0, 689, 82.8, 0, 1);"><tspan x="0" y="2.1999999999999993" text-anchor="start" dominant-baseline="hanging" fill="#333333" font-size="11" font-family="Arial" font-weight="normal">Peer</tspan><tspan x="24" y="2.1999999999999993" text-anchor="start" dominant-baseline="hanging" fill="#333333" font-size="11" font-family="Arial" font-weight="normal"> </tspan><tspan x="28" y="2.1999999999999993" text-anchor="start" dominant-baseline="hanging" fill="#333333" font-size="11" font-family="Arial" font-weight="normal">Review</tspan></text></g></svg>