<svg style="width:100%;height:100%" xmlns="http://www.w3.org/2000/svg" width="800" height="500"><g data-render-type="RenderParagraph" pointer-events="none"><text data-render-name="text" style="transform: matrix3d(1, 0, 0, 0, 0, 1, 0, 0, 0, 0, 1, 0, 20, 20, 0, 1);"><tspan x="0" y="3.599999999999998" text-anchor="start" dominant-baseline="hanging" fill="#333333" font-size="18" font-family="Arial" font-weight="bold">Pokémon</tspan><tspan x="82" y="3.599999999999998" text-anchor="start" dominant-baseline="hanging" fill="#333333" font-size="18" font-family="Arial" font-weight="bold"> </tspan><tspan x="88" y="3.599999999999998" text-anchor="start" dominant-baseline="hanging" fill="#333333" font-size="18" font-family="Arial" font-weight="bold">Stats</tspan><tspan x="133" y="3.599999999999998" text-anchor="start" dominant-baseline="hanging" fill="#333333" font-size="18" font-family="Arial" font-weight="bold"> </tspan><tspan x="139" y="3.599999999999998" text-anchor="start" dominant-baseline="hanging" fill="#333333" font-size="18" font-family="Arial" font-weight="bold">Battle</tspan></text></g><g data-render-type="RenderCustomPaint" pointer-events="none"><path data-render-name="axisLines" d="M38.12001777648926 0L71.13292156364335 19.06000888824463L71.13292156364335 57.18002666473389L38.12001777648926 76.24003555297853L5.107113989335176 57.18002666473391L5.107113989335154 19.060008888244656L38.12001777648926 0" fill="none" stroke="rgba(0, 0, 0, 0.1)" stroke-width="1" style="transform: matrix3d(1, 0, 0, 0, 0, 1, 0, 0, 0, 0, 1, 0, 308.88, 230.68, 0, 1);"></path></g><g data-render-type="RenderCustomPaint" pointer-events="none"><path data-render-name="axisLines" d="M76.24003555297853 0L142.2658431272867 38.12001777648926L142.2658431272867 114.36005332946777L76.24003555297853 152.48007110595705L10.214227978670351 114.36005332946782L10.214227978670309 38.12001777648931L76.24003555297853 0" fill="none" stroke="rgba(0, 0, 0, 0.1)" stroke-width="1" style="transform: matrix3d(1, 0, 0, 0, 0, 1, 0, 0, 0, 0, 1, 0, 270.76, 192.56, 0, 1);"></path></g><g data-render-type="RenderCustomPaint" pointer-events="none"><path data-render-name="axisLines" d="M114.36005332946777 0L213.39876469093002 57.18002666473389L213.39876469093005 171.54007999420165L114.36005332946777 228.72010665893555L15.321341968005527 171.5400799942017L15.32134196800547 57.18002666473396L114.36005332946777 0" fill="none" stroke="rgba(0, 0, 0, 0.1)" stroke-width="1" style="transform: matrix3d(1, 0, 0, 0, 0, 1, 0, 0, 0, 0, 1, 0, 232.64, 154.44, 0, 1);"></path></g><g data-render-type="RenderCustomPaint" pointer-events="none"><path data-render-name="axisLines" d="M152.48007110595705 0L284.5316862545734 76.24003555297853L284.5316862545734 228.72010665893555L152.48007110595705 304.9601422119141L20.428455957340702 228.72010665893563L20.428455957340617 76.24003555297863L152.48007110595705 0" fill="none" stroke="rgba(0, 0, 0, 0.1)" stroke-width="1" style="transform: matrix3d(1, 0, 0, 0, 0, 1, 0, 0, 0, 0, 1, 0, 194.52, 116.32, 0, 1);"></path></g><g data-render-type="RenderCustomPaint" pointer-events="none"><path data-render-name="axisLines" d="M190.6000888824463 0L355.6646078182167 95.30004444122315L355.6646078182167 285.9001333236694L190.6000888824463 381.2001777648926L25.535569946675878 285.9001333236695L25.535569946675764 95.30004444122326L190.6000888824463 0" fill="none" stroke="rgba(0, 0, 0, 0.1)" stroke-width="1" style="transform: matrix3d(1, 0, 0, 0, 0, 1, 0, 0, 0, 0, 1, 0, 156.4, 78.1999, 0, 1);"></path></g><g data-render-type="RenderCustomPaint" pointer-events="none"><path data-render-name="gridLines" d="M190.6000888824463 190.6000888824463L190.6000888824463 0" fill="none" stroke="rgba(0, 0, 0, 0.1)" stroke-width="1" style="transform: matrix3d(1, 0, 0, 0, 0, 1, 0, 0, 0, 0, 1, 0, 156.4, 78.1999, 0, 1);"></path></g><g data-render-type="RenderCustomPaint" pointer-events="none"><path data-render-name="gridLines" d="M190.6000888824463 190.6000888824463L190.6000888824463 0" fill="none" stroke="rgba(0, 0, 0, 0.1)" stroke-width="1" style="transform: matrix3d(0.5, 0.866025, 0, 0, -0.866025, 0.5, 0, 0, 0, 0, 1, 0, 416.764, 8.43544, 0, 1);"></path></g><g data-render-type="RenderCustomPaint" pointer-events="none"><path data-render-name="gridLines" d="M190.6000888824463 190.6000888824463L190.6000888824463 0" fill="none" stroke="rgba(0, 0, 0, 0.1)" stroke-width="1" style="transform: matrix3d(-0.5, 0.866025, 0, 0, -0.866025, -0.5, 0, 0, 0, 0, 1, 0, 607.365, 199.036, 0, 1);"></path></g><g data-render-type="RenderCustomPaint" pointer-events="none"><path data-render-name="gridLines" d="M190.6000888824463 190.6000888824463L190.6000888824463 0" fill="none" stroke="rgba(0, 0, 0, 0.1)" stroke-width="1" style="transform: matrix3d(-1, 0, 0, 0, 0, -1, 0, 0, 0, 0, 1, 0, 537.6, 459.4, 0, 1);"></path></g><g data-render-type="RenderCustomPaint" pointer-events="none"><path data-render-name="gridLines" d="M190.6000888824463 190.6000888824463L190.6000888824463 0" fill="none" stroke="rgba(0, 0, 0, 0.1)" stroke-width="1" style="transform: matrix3d(-0.5, -0.866025, 0, 0, 0.866025, -0.5, 0, 0, 0, 0, 1, 0, 277.236, 529.165, 0, 1);"></path></g><g data-render-type="RenderCustomPaint" pointer-events="none"><path data-render-name="gridLines" d="M190.6000888824463 190.6000888824463L190.6000888824463 0" fill="none" stroke="rgba(0, 0, 0, 0.1)" stroke-width="1" style="transform: matrix3d(0.5, -0.866025, 0, 0, 0.866025, 0.5, 0, 0, 0, 0, 1, 0, 86.6354, 338.564, 0, 1);"></path></g><g data-render-type="RenderCustomPaint" pointer-events="none"><path data-render-name="fill" d="M190.6000888824463 85.77003999710082L240.1194445631774 162.01007555007936L347.4113818714282 281.1351311016083L190.6000888824463 257.31011999130254L108.0678294145611 238.25011110305792L124.5742813081381 152.48007110595708L190.6000888824463 85.77003999710082Z" fill="#00a9ff" fill-opacity="0.3" stroke="none" style="transform: matrix3d(1, 0, 0, 0, 0, 1, 0, 0, 0, 0, 1, 0, 156.4, 78.1999, 0, 1);"></path><path data-render-name="stroke" d="M190.6000888824463 85.77003999710082L240.1194445631774 162.01007555007936L347.4113818714282 281.1351311016083L190.6000888824463 257.31011999130254L108.0678294145611 238.25011110305792L124.5742813081381 152.48007110595708L190.6000888824463 85.77003999710082Z" fill="none" stroke="#00a9ff" stroke-width="2" stroke-opacity="1" style="transform: matrix3d(1, 0, 0, 0, 0, 1, 0, 0, 0, 0, 1, 0, 156.4, 78.1999, 0, 1);"></path><circle data-render-name="point" r="0" style="transform: matrix3d(1, 0, 0, 0, 0, 1, 0, 0, 0, 0, 1, 0, 156.4, 78.1999, 0, 1);"></circle></g><g data-render-type="RenderCustomPaint" pointer-events="none"><path data-render-name="fill" d="M190.6000888824463 97.20604533004762L297.8920261906971 128.65505999565127L264.879122403543 233.4851088809967L190.6000888824463 343.08015998840335L83.30815157419552 252.5451177692414L83.30815157419545 128.65505999565133L190.6000888824463 97.20604533004762Z" fill="#ffb840" fill-opacity="0.3" stroke="none" style="transform: matrix3d(1, 0, 0, 0, 0, 1, 0, 0, 0, 0, 1, 0, 156.4, 78.1999, 0, 1);"></path><path data-render-name="stroke" d="M190.6000888824463 97.20604533004762L297.8920261906971 128.65505999565127L264.879122403543 233.4851088809967L190.6000888824463 343.08015998840335L83.30815157419552 252.5451177692414L83.30815157419545 128.65505999565133L190.6000888824463 97.20604533004762Z" fill="none" stroke="#ffb840" stroke-width="2" stroke-opacity="1" style="transform: matrix3d(1, 0, 0, 0, 0, 1, 0, 0, 0, 0, 1, 0, 156.4, 78.1999, 0, 1);"></path><circle data-render-name="point" r="0" style="transform: matrix3d(1, 0, 0, 0, 0, 1, 0, 0, 0, 0, 1, 0, 156.4, 78.1999, 0, 1);"></circle></g><g data-render-type="RenderCustomPaint" pointer-events="none"><path data-render-name="fill" d="M190.6000888824463 28.59001333236695L261.5778320248276 149.62106977272035L297.8920261906971 252.54511776924133L190.6000888824463 264.9341235466004L58.54847373382996 266.8401244354249L132.82750725492662 157.24507332801824L190.6000888824463 28.59001333236695Z" fill="#ff5a46" fill-opacity="0.3" stroke="none" style="transform: matrix3d(1, 0, 0, 0, 0, 1, 0, 0, 0, 0, 1, 0, 156.4, 78.1999, 0, 1);"></path><path data-render-name="stroke" d="M190.6000888824463 28.59001333236695L261.5778320248276 149.62106977272035L297.8920261906971 252.54511776924133L190.6000888824463 264.9341235466004L58.54847373382996 266.8401244354249L132.82750725492662 157.24507332801824L190.6000888824463 28.59001333236695Z" fill="none" stroke="#ff5a46" stroke-width="2" stroke-opacity="1" style="transform: matrix3d(1, 0, 0, 0, 0, 1, 0, 0, 0, 0, 1, 0, 156.4, 78.1999, 0, 1);"></path><circle data-render-name="point" r="0" style="transform: matrix3d(1, 0, 0, 0, 0, 1, 0, 0, 0, 0, 1, 0, 156.4, 78.1999, 0, 1);"></circle></g><g data-render-type="RenderDecoratedBox" pointer-events="none"><path data-render-name="box" stroke-width="0" fill="rgba(243, 244, 246, 1)" d="M0 4A4 4 0 0 1 4 0L16 0A4 4 0 0 1 20 4L20 12A4 4 0 0 1 16 16L4 16A4 4 0 0 1 0 12Z" style="transform: matrix3d(1, 0, 0, 0, 0, 1, 0, 0, 0, 0, 1, 0, 337, 222.68, 0, 1);"></path><path data-render-name="topBorder" stroke-width="0" fill="rgba(0, 0, 0, 0.08)" d="M0 4A4 4 0 0 1 4 0L16 0A4 4 0 0 1 20 4L20 12A4 4 0 0 1 16 16L4 16A4 4 0 0 1 0 12ZM1 12A3 3 0 0 0 4 15L16 15A3 3 0 0 0 19 12L19 4A3 3 0 0 0 16 1L4 1A3 3 0 0 0 1 4Z" style="transform: matrix3d(1, 0, 0, 0, 0, 1, 0, 0, 0, 0, 1, 0, 337, 222.68, 0, 1);"></path><path data-render-name="leftBorder" style="transform: matrix3d(1, 0, 0, 0, 0, 1, 0, 0, 0, 0, 1, 0, 337, 222.68, 0, 1);"></path><path data-render-name="rightBorder" style="transform: matrix3d(1, 0, 0, 0, 0, 1, 0, 0, 0, 0, 1, 0, 337, 222.68, 0, 1);"></path><path data-render-name="bottomBorder" stroke-width="0" stroke="transparent" fill="none" style="transform: matrix3d(1, 0, 0, 0, 0, 1, 0, 0, 0, 0, 1, 0, 337, 222.68, 0, 1);"></path></g><g data-render-type="RenderParagraph" pointer-events="none"><text data-render-name="text" style="transform: matrix3d(1, 0, 0, 0, 0, 1, 0, 0, 0, 0, 1, 0, 341, 224.68, 0, 1);"><tspan x="0" y="2" text-anchor="start" dominant-baseline="hanging" fill="#333333" font-size="10" font-family="Arial" font-weight="normal">20</tspan></text></g><g data-render-type="RenderDecoratedBox" pointer-events="none"><path data-render-name="box" stroke-width="0" fill="rgba(243, 244, 246, 1)" d="M0 4A4 4 0 0 1 4 0L16 0A4 4 0 0 1 20 4L20 12A4 4 0 0 1 16 16L4 16A4 4 0 0 1 0 12Z" style="transform: matrix3d(1, 0, 0, 0, 0, 1, 0, 0, 0, 0, 1, 0, 337, 184.56, 0, 1);"></path><path data-render-name="topBorder" stroke-width="0" fill="rgba(0, 0, 0, 0.08)" d="M0 4A4 4 0 0 1 4 0L16 0A4 4 0 0 1 20 4L20 12A4 4 0 0 1 16 16L4 16A4 4 0 0 1 0 12ZM1 12A3 3 0 0 0 4 15L16 15A3 3 0 0 0 19 12L19 4A3 3 0 0 0 16 1L4 1A3 3 0 0 0 1 4Z" style="transform: matrix3d(1, 0, 0, 0, 0, 1, 0, 0, 0, 0, 1, 0, 337, 184.56, 0, 1);"></path><path data-render-name="leftBorder" style="transform: matrix3d(1, 0, 0, 0, 0, 1, 0, 0, 0, 0, 1, 0, 337, 184.56, 0, 1);"></path><path data-render-name="rightBorder" style="transform: matrix3d(1, 0, 0, 0, 0, 1, 0, 0, 0, 0, 1, 0, 337, 184.56, 0, 1);"></path><path data-render-name="bottomBorder" stroke-width="0" stroke="transparent" fill="none" style="transform: matrix3d(1, 0, 0, 0, 0, 1, 0, 0, 0, 0, 1, 0, 337, 184.56, 0, 1);"></path></g><g data-render-type="RenderParagraph" pointer-events="none"><text data-render-name="text" style="transform: matrix3d(1, 0, 0, 0, 0, 1, 0, 0, 0, 0, 1, 0, 341, 186.56, 0, 1);"><tspan x="0" y="2" text-anchor="start" dominant-baseline="hanging" fill="#333333" font-size="10" font-family="Arial" font-weight="normal">40</tspan></text></g><g data-render-type="RenderDecoratedBox" pointer-events="none"><path data-render-name="box" stroke-width="0" fill="rgba(243, 244, 246, 1)" d="M0 4A4 4 0 0 1 4 0L16 0A4 4 0 0 1 20 4L20 12A4 4 0 0 1 16 16L4 16A4 4 0 0 1 0 12Z" style="transform: matrix3d(1, 0, 0, 0, 0, 1, 0, 0, 0, 0, 1, 0, 337, 146.44, 0, 1);"></path><path data-render-name="topBorder" stroke-width="0" fill="rgba(0, 0, 0, 0.08)" d="M0 4A4 4 0 0 1 4 0L16 0A4 4 0 0 1 20 4L20 12A4 4 0 0 1 16 16L4 16A4 4 0 0 1 0 12ZM1 12A3 3 0 0 0 4 15L16 15A3 3 0 0 0 19 12L19 4A3 3 0 0 0 16 1L4 1A3 3 0 0 0 1 4Z" style="transform: matrix3d(1, 0, 0, 0, 0, 1, 0, 0, 0, 0, 1, 0, 337, 146.44, 0, 1);"></path><path data-render-name="leftBorder" style="transform: matrix3d(1, 0, 0, 0, 0, 1, 0, 0, 0, 0, 1, 0, 337, 146.44, 0, 1);"></path><path data-render-name="rightBorder" style="transform: matrix3d(1, 0, 0, 0, 0, 1, 0, 0, 0, 0, 1, 0, 337, 146.44, 0, 1);"></path><path data-render-name="bottomBorder" stroke-width="0" stroke="transparent" fill="none" style="transform: matrix3d(1, 0, 0, 0, 0, 1, 0, 0, 0, 0, 1, 0, 337, 146.44, 0, 1);"></path></g><g data-render-type="RenderParagraph" pointer-events="none"><text data-render-name="text" style="transform: matrix3d(1, 0, 0, 0, 0, 1, 0, 0, 0, 0, 1, 0, 341, 148.44, 0, 1);"><tspan x="0" y="2" text-anchor="start" dominant-baseline="hanging" fill="#333333" font-size="10" font-family="Arial" font-weight="normal">60</tspan></text></g><g data-render-type="RenderDecoratedBox" pointer-events="none"><path data-render-name="box" stroke-width="0" fill="rgba(243, 244, 246, 1)" d="M0 4A4 4 0 0 1 4 0L16 0A4 4 0 0 1 20 4L20 12A4 4 0 0 1 16 16L4 16A4 4 0 0 1 0 12Z" style="transform: matrix3d(1, 0, 0, 0, 0, 1, 0, 0, 0, 0, 1, 0, 337, 108.32, 0, 1);"></path><path data-render-name="topBorder" stroke-width="0" fill="rgba(0, 0, 0, 0.08)" d="M0 4A4 4 0 0 1 4 0L16 0A4 4 0 0 1 20 4L20 12A4 4 0 0 1 16 16L4 16A4 4 0 0 1 0 12ZM1 12A3 3 0 0 0 4 15L16 15A3 3 0 0 0 19 12L19 4A3 3 0 0 0 16 1L4 1A3 3 0 0 0 1 4Z" style="transform: matrix3d(1, 0, 0, 0, 0, 1, 0, 0, 0, 0, 1, 0, 337, 108.32, 0, 1);"></path><path data-render-name="leftBorder" style="transform: matrix3d(1, 0, 0, 0, 0, 1, 0, 0, 0, 0, 1, 0, 337, 108.32, 0, 1);"></path><path data-render-name="rightBorder" style="transform: matrix3d(1, 0, 0, 0, 0, 1, 0, 0, 0, 0, 1, 0, 337, 108.32, 0, 1);"></path><path data-render-name="bottomBorder" stroke-width="0" stroke="transparent" fill="none" style="transform: matrix3d(1, 0, 0, 0, 0, 1, 0, 0, 0, 0, 1, 0, 337, 108.32, 0, 1);"></path></g><g data-render-type="RenderParagraph" pointer-events="none"><text data-render-name="text" style="transform: matrix3d(1, 0, 0, 0, 0, 1, 0, 0, 0, 0, 1, 0, 341, 110.32, 0, 1);"><tspan x="0" y="2" text-anchor="start" dominant-baseline="hanging" fill="#333333" font-size="10" font-family="Arial" font-weight="normal">80</tspan></text></g><g data-render-type="RenderParagraph" pointer-events="none"><text data-render-name="text" style="transform: matrix3d(1, 0, 0, 0, 0, 1, 0, 0, 0, 0, 1, 0, 328.5, 57.5999, 0, 1);"><tspan x="0" y="2.5999999999999996" text-anchor="start" dominant-baseline="hanging" fill="#333333" font-size="13" font-family="Arial" font-weight="normal">Attack</tspan></text></g><g data-render-type="RenderParagraph" pointer-events="none"><text data-render-name="text" style="transform: matrix3d(1, 0, 0, 0, 0, 1, 0, 0, 0, 0, 1, 0, 516.395, 155.4, 0, 1);"><tspan x="0" y="2.5999999999999996" text-anchor="start" dominant-baseline="hanging" fill="#333333" font-size="13" font-family="Arial" font-weight="normal">Defense</tspan></text></g><g data-render-type="RenderParagraph" pointer-events="none"><text data-render-name="text" style="transform: matrix3d(1, 0, 0, 0, 0, 1, 0, 0, 0, 0, 1, 0, 516.395, 366.6, 0, 1);"><tspan x="0" y="2.5999999999999996" text-anchor="start" dominant-baseline="hanging" fill="#333333" font-size="13" font-family="Arial" font-weight="normal">Speed</tspan></text></g><g data-render-type="RenderParagraph" pointer-events="none"><text data-render-name="text" style="transform: matrix3d(1, 0, 0, 0, 0, 1, 0, 0, 0, 0, 1, 0, 337.5, 464.4, 0, 1);"><tspan x="0" y="2.5999999999999996" text-anchor="start" dominant-baseline="hanging" fill="#333333" font-size="13" font-family="Arial" font-weight="normal">HP</tspan></text></g><g data-render-type="RenderParagraph" pointer-events="none"><text data-render-name="text" style="transform: matrix3d(1, 0, 0, 0, 0, 1, 0, 0, 0, 0, 1, 0, 138.605, 366.6, 0, 1);"><tspan x="0" y="2.5999999999999996" text-anchor="start" dominant-baseline="hanging" fill="#333333" font-size="13" font-family="Arial" font-weight="normal">Sp.Atk</tspan></text></g><g data-render-type="RenderParagraph" pointer-events="none"><text data-render-name="text" style="transform: matrix3d(1, 0, 0, 0, 0, 1, 0, 0, 0, 0, 1, 0, 137.605, 155.4, 0, 1);"><tspan x="0" y="2.5999999999999996" text-anchor="start" dominant-baseline="hanging" fill="#333333" font-size="13" font-family="Arial" font-weight="normal">Sp.Def</tspan></text></g><g data-render-type="RenderDecoratedBox" pointer-events="none"><path data-render-name="box" stroke-width="0" fill="rgba(0, 169, 255, 1)" d="M0 5A5 5 0 0 1 10 5A5 5 0 0 1 0 5Z" style="transform: matrix3d(1, 0, 0, 0, 0, 1, 0, 0, 0, 0, 1, 0, 694, 59.2, 0, 1);"></path><path data-render-name="topBorder" d="" style="transform: matrix3d(1, 0, 0, 0, 0, 1, 0, 0, 0, 0, 1, 0, 694, 59.2, 0, 1);"></path><path data-render-name="leftBorder" d="" style="transform: matrix3d(1, 0, 0, 0, 0, 1, 0, 0, 0, 0, 1, 0, 694, 59.2, 0, 1);"></path><path data-render-name="rightBorder" d="" style="transform: matrix3d(1, 0, 0, 0, 0, 1, 0, 0, 0, 0, 1, 0, 694, 59.2, 0, 1);"></path><path data-render-name="bottomBorder" d="" style="transform: matrix3d(1, 0, 0, 0, 0, 1, 0, 0, 0, 0, 1, 0, 694, 59.2, 0, 1);"></path></g><g data-render-type="RenderParagraph" pointer-events="none"><text data-render-name="text" style="transform: matrix3d(1, 0, 0, 0, 0, 1, 0, 0, 0, 0, 1, 0, 710, 57.6, 0, 1);"><tspan x="0" y="2.1999999999999993" text-anchor="start" dominant-baseline="hanging" fill="#333333" font-size="11" font-family="Arial" font-weight="normal">Pikachu</tspan></text></g><g data-render-type="RenderDecoratedBox" pointer-events="none"><path data-render-name="box" stroke-width="0" fill="rgba(255, 184, 64, 1)" d="M0 5A5 5 0 0 1 10 5A5 5 0 0 1 0 5Z" style="transform: matrix3d(1, 0, 0, 0, 0, 1, 0, 0, 0, 0, 1, 0, 694, 84.4, 0, 1);"></path><path data-render-name="topBorder" d="" style="transform: matrix3d(1, 0, 0, 0, 0, 1, 0, 0, 0, 0, 1, 0, 694, 84.4, 0, 1);"></path><path data-render-name="leftBorder" d="" style="transform: matrix3d(1, 0, 0, 0, 0, 1, 0, 0, 0, 0, 1, 0, 694, 84.4, 0, 1);"></path><path data-render-name="rightBorder" d="" style="transform: matrix3d(1, 0, 0, 0, 0, 1, 0, 0, 0, 0, 1, 0, 694, 84.4, 0, 1);"></path><path data-render-name="bottomBorder" d="" style="transform: matrix3d(1, 0, 0, 0, 0, 1, 0, 0, 0, 0, 1, 0, 694, 84.4, 0, 1);"></path></g><g data-render-type="RenderParagraph" pointer-events="none"><text data-render-name="text" style="transform: matrix3d(1, 0, 0, 0, 0, 1, 0, 0, 0, 0, 1, 0, 710, 82.8, 0, 1);"><tspan x="0" y="2.1999999999999993" text-anchor="start" dominant-baseline="hanging" fill="#333333" font-size="11" font-family="Arial" font-weight="normal">Bulbasaur</tspan></text></g><g data-render-type="RenderDecoratedBox" pointer-events="none"><path data-render-name="box" stroke-width="0" fill="rgba(255, 90, 70, 1)" d="M0 5A5 5 0 0 1 10 5A5 5 0 0 1 0 5Z" style="transform: matrix3d(1, 0, 0, 0, 0, 1, 0, 0, 0, 0, 1, 0, 694, 109.6, 0, 1);"></path><path data-render-name="topBorder" d="" style="transform: matrix3d(1, 0, 0, 0, 0, 1, 0, 0, 0, 0, 1, 0, 694, 109.6, 0, 1);"></path><path data-render-name="leftBorder" d="" style="transform: matrix3d(1, 0, 0, 0, 0, 1, 0, 0, 0, 0, 1, 0, 694, 109.6, 0, 1);"></path><path data-render-name="rightBorder" d="" style="transform: matrix3d(1, 0, 0, 0, 0, 1, 0, 0, 0, 0, 1, 0, 694, 109.6, 0, 1);"></path><path data-render-name="bottomBorder" d="" style="transform: matrix3d(1, 0, 0, 0, 0, 1, 0, 0, 0, 0, 1, 0, 694, 109.6, 0, 1);"></path></g><g data-render-type="RenderParagraph" pointer-events="none"><text data-render-name="text" style="transform: matrix3d(1, 0, 0, 0, 0, 1, 0, 0, 0, 0, 1, 0, 710, 108, 0, 1);"><tspan x="0" y="2.1999999999999993" text-anchor="start" dominant-baseline="hanging" fill="#333333" font-size="11" font-family="Arial" font-weight="normal">Charmander</tspan></text></g></svg>